<svg width="107" height="63" viewBox="0 0 107 63" fill="none" xmlns="http://www.w3.org/2000/svg">
<path fill-rule="evenodd" clip-rule="evenodd" d="M72.6298 1.3097C73.0439 0.894545 73.5359 0.565161 74.0775 0.34042C74.6191 0.11568 75.1997 0 75.7861 0C76.3725 0 76.9531 0.11568 77.4947 0.34042C78.0363 0.565161 78.5283 0.894545 78.9424 1.3097L105.69 28.0577C106.106 28.4718 106.435 28.9638 106.66 29.5054C106.884 30.047 107 30.6276 107 31.214C107 31.8004 106.884 32.381 106.66 32.9226C106.435 33.4642 106.106 33.9561 105.69 34.3702L78.9424 61.1183C78.1053 61.9553 76.9699 62.4256 75.7861 62.4256C74.6023 62.4256 73.4669 61.9553 72.6298 61.1183C71.7927 60.2812 71.3225 59.1458 71.3225 57.962C71.3225 56.7782 71.7927 55.6428 72.6298 54.8057L96.2305 31.214L72.6298 7.62223C72.2147 7.20813 71.8853 6.71618 71.6606 6.17458C71.4358 5.63297 71.3201 5.05235 71.3201 4.46597C71.3201 3.87959 71.4358 3.29897 71.6606 2.75736C71.8853 2.21576 72.2147 1.72381 72.6298 1.3097V1.3097Z" fill="#217153"/>
<path fill-rule="evenodd" clip-rule="evenodd" d="M0 31.2148C0 30.0325 0.469682 28.8986 1.30572 28.0626C2.14176 27.2265 3.27567 26.7568 4.458 26.7568H98.076C99.2584 26.7568 100.392 27.2265 101.228 28.0626C102.064 28.8986 102.534 30.0325 102.534 31.2148C102.534 32.3972 102.064 33.5311 101.228 34.3671C100.392 35.2032 99.2584 35.6728 98.076 35.6728H4.458C3.27567 35.6728 2.14176 35.2032 1.30572 34.3671C0.469682 33.5311 0 32.3972 0 31.2148Z" fill="#217153"/>
</svg>
