<svg width="2858" height="3046" viewBox="0 0 2858 3046" fill="none" xmlns="http://www.w3.org/2000/svg">
<path d="M1428.92 2910.58L1409.17 2905.26C996.965 2794.9 422 2345.57 422 1889.37V452.807L1428.92 206L2435.84 452.807V1889.54C2435.84 2345.74 1860.87 2795.07 1448.66 2905.43L1428.92 2910.58ZM549.903 569.689V1894C549.903 2066.32 656.862 2259.92 851.206 2439.28C1018.43 2593.58 1238.01 2721.96 1429.09 2777.74C1620.34 2721.96 1839.75 2593.75 2006.97 2439.28C2201.15 2259.92 2308.28 2066.32 2308.28 1894V569.689L1428.92 352.402L549.903 569.689Z" fill="white"/>
<path d="M2708.29 1723.92C2729.24 1782.78 2703.49 1833.93 2703.49 1833.93C2703.49 1833.93 2650.44 1808.36 2629.49 1749.49C2608.55 1690.62 2627.77 1620.94 2627.77 1620.94C2627.77 1620.94 2687.35 1665.22 2708.29 1723.92Z" fill="white"/>
<path d="M2819.72 1884.57C2803.06 1953.9 2751.56 1990.46 2751.56 1990.46C2751.56 1990.46 2721.86 1936.23 2738.51 1866.89C2755.16 1797.55 2811.82 1739.19 2811.82 1739.19C2811.82 1739.19 2836.37 1815.05 2819.72 1884.57Z" fill="white"/>
<path d="M2830.19 2113.52C2797.22 2177.37 2738.34 2201.57 2738.34 2201.57C2738.34 2201.57 2722.54 2142.36 2755.5 2078.34C2788.47 2014.49 2857.66 1970.21 2857.66 1970.21C2857.66 1970.21 2863.15 2049.67 2830.19 2113.52Z" fill="white"/>
<path d="M2784.35 2336.13C2736.45 2390.71 2673.27 2400.84 2673.27 2400.84C2673.27 2400.84 2672.75 2339.73 2720.65 2285.16C2768.55 2230.58 2846.84 2203.29 2846.84 2203.29C2846.84 2203.29 2832.25 2281.55 2784.35 2336.13Z" fill="white"/>
<path d="M2686.49 2553.58C2621.59 2597.86 2553.95 2592.89 2553.95 2592.89C2553.95 2592.89 2570.95 2530.07 2635.84 2485.79C2700.74 2441.51 2788.81 2432.41 2788.81 2432.41C2788.81 2432.41 2751.39 2509.3 2686.49 2553.58Z" fill="white"/>
<path d="M2538.5 2742.21C2464.85 2771.39 2399.09 2749.93 2399.09 2749.93C2399.09 2749.93 2429.65 2690.38 2503.3 2661.37C2576.95 2632.19 2665.89 2644.38 2665.89 2644.38C2665.89 2644.38 2612.15 2713.2 2538.5 2742.21Z" fill="white"/>
<path d="M2344.67 2884.66C2265.18 2889.98 2209.9 2849.99 2209.9 2849.99C2209.9 2849.99 2258.66 2802.79 2338.14 2797.47C2417.63 2792.15 2497.98 2830.6 2497.98 2830.6C2497.98 2830.6 2424.16 2879.34 2344.67 2884.66Z" fill="white"/>
<path d="M2125.43 2980.26C2046.46 2969.62 2001.3 2919.34 2001.3 2919.34C2001.3 2919.34 2059.33 2882.95 2138.31 2893.42C2217.28 2904.06 2287.33 2957.61 2287.33 2957.61C2287.33 2957.61 2204.41 2990.73 2125.43 2980.26Z" fill="white"/>
<path d="M1883.53 3026.6C1809.88 2997.6 1779.15 2938.04 1779.15 2938.04C1779.15 2938.04 1844.73 2916.59 1918.55 2945.59C1992.2 2974.6 2046.11 3043.25 2046.11 3043.25C2046.11 3043.25 1957.35 3055.61 1883.53 3026.6Z" fill="white"/>
<path d="M2676.53 1884.22C2716.36 1936.4 2708.64 1993.9 2708.64 1993.9C2708.64 1993.9 2649.06 1983.25 2609.23 1931.08C2569.4 1878.9 2564.59 1804.93 2564.59 1804.93C2564.59 1804.93 2636.7 1832.05 2676.53 1884.22Z" fill="white"/>
<path d="M2688.03 2078.85C2713.44 2138.58 2691.64 2192.65 2691.64 2192.65C2691.64 2192.65 2636.36 2168.62 2610.95 2108.89C2585.54 2049.16 2599.27 1976.22 2599.27 1976.22C2599.27 1976.22 2662.45 2019.13 2688.03 2078.85Z" fill="white"/>
<path d="M2650.26 2273.31C2661.42 2336.98 2627.6 2385.04 2627.6 2385.04C2627.6 2385.04 2579.36 2350.03 2568.2 2286.35C2557.04 2222.68 2587.43 2154.54 2587.43 2154.54C2587.43 2154.54 2639.1 2209.8 2650.26 2273.31Z" fill="white"/>
<path d="M2565.45 2454.73C2562.19 2522.69 2518.41 2565.09 2518.41 2565.09C2518.41 2565.09 2478.92 2518.92 2482.36 2450.95C2485.62 2382.99 2530.43 2319.14 2530.43 2319.14C2530.43 2319.14 2568.71 2386.76 2565.45 2454.73Z" fill="white"/>
<path d="M2439.44 2610.57C2419.01 2675.79 2365.96 2706.85 2365.96 2706.85C2365.96 2706.85 2339.35 2652.96 2359.78 2587.74C2380.21 2522.52 2439.78 2470.86 2439.78 2470.86C2439.78 2470.86 2459.7 2545.35 2439.44 2610.57Z" fill="white"/>
<path d="M2282.18 2730.71C2249.21 2790.95 2190.67 2811.89 2190.67 2811.89C2190.67 2811.89 2175.39 2754.05 2208.35 2693.98C2241.32 2633.74 2310.16 2593.92 2310.16 2593.92C2310.16 2593.92 2315.14 2670.47 2282.18 2730.71Z" fill="white"/>
<path d="M2102.08 2812.07C2056.24 2864.07 1994.44 2872.48 1994.44 2872.48C1994.44 2872.48 1992.55 2812.93 2038.39 2760.92C2084.23 2708.92 2160.45 2684.2 2160.45 2684.2C2160.45 2684.2 2147.92 2760.06 2102.08 2812.07Z" fill="white"/>
<path d="M1900.35 2857.03C1844.04 2898.57 1781.72 2894.28 1781.72 2894.28C1781.72 2894.28 1793.05 2835.75 1849.37 2794.04C1905.68 2752.51 1985.68 2743.58 1985.68 2743.58C1985.68 2743.58 1956.67 2815.5 1900.35 2857.03Z" fill="white"/>
<path d="M149.708 1723.91C128.762 1782.78 154.515 1834.1 154.515 1834.1C154.515 1834.1 207.565 1808.53 228.51 1749.66C249.455 1690.79 230.227 1621.1 230.227 1621.1C230.227 1621.1 170.653 1665.21 149.708 1723.91Z" fill="white"/>
<path d="M38.2846 1884.56C54.9378 1953.9 106.443 1990.45 106.443 1990.45C106.443 1990.45 136.144 1936.22 119.49 1866.88C102.837 1797.54 46.182 1739.18 46.182 1739.18C46.182 1739.18 21.6314 1815.05 38.2846 1884.56Z" fill="white"/>
<path d="M27.8126 2113.51C60.7756 2177.36 119.663 2201.56 119.663 2201.56C119.663 2201.56 135.458 2142.35 102.494 2078.33C69.5314 2014.48 0.343365 1970.2 0.343365 1970.2C0.343365 1970.2 -5.15048 2049.67 27.8126 2113.51Z" fill="white"/>
<path d="M73.6521 2336.12C121.552 2390.7 184.731 2400.83 184.731 2400.83C184.731 2400.83 185.246 2339.73 137.346 2285.15C89.4469 2230.57 11.1597 2203.28 11.1597 2203.28C11.1597 2203.28 25.7527 2281.54 73.6521 2336.12Z" fill="white"/>
<path d="M171.339 2553.58C236.235 2597.86 303.878 2592.89 303.878 2592.89C303.878 2592.89 286.882 2530.07 221.986 2485.79C157.09 2441.51 69.0166 2432.41 69.0166 2432.41C69.0166 2432.41 106.615 2509.3 171.339 2553.58Z" fill="white"/>
<path d="M319.5 2742.2C393.152 2771.38 458.907 2749.93 458.907 2749.93C458.907 2749.93 428.347 2690.37 354.695 2661.36C281.043 2632.36 192.112 2644.37 192.112 2644.37C192.112 2644.37 245.677 2713.2 319.5 2742.2Z" fill="white"/>
<path d="M513.331 2884.66C592.82 2889.98 648.101 2849.99 648.101 2849.99C648.101 2849.99 599.344 2802.8 519.855 2797.47C440.366 2792.15 360.018 2830.6 360.018 2830.6C360.018 2830.6 433.842 2879.34 513.331 2884.66Z" fill="white"/>
<path d="M732.569 2980.26C811.543 2969.62 856.696 2919.33 856.696 2919.33C856.696 2919.33 798.667 2882.94 719.693 2893.41C640.719 2904.05 570.673 2957.6 570.673 2957.6C570.673 2957.6 653.595 2990.73 732.569 2980.26Z" fill="white"/>
<path d="M974.299 3026.6C1047.95 2997.6 1078.68 2938.04 1078.68 2938.04C1078.68 2938.04 1013.1 2916.59 939.276 2945.59C865.624 2974.6 811.716 3043.25 811.716 3043.25C811.716 3043.25 900.647 3055.61 974.299 3026.6Z" fill="white"/>
<path d="M181.467 1884.21C141.637 1936.39 149.363 1993.89 149.363 1993.89C149.363 1993.89 208.937 1983.25 248.767 1931.07C288.597 1878.89 293.405 1804.92 293.405 1804.92C293.405 1804.92 221.126 1832.04 181.467 1884.21Z" fill="white"/>
<path d="M169.966 2078.85C144.557 2138.57 166.36 2192.64 166.36 2192.64C166.36 2192.64 221.642 2168.61 247.051 2108.88C272.46 2049.15 258.726 1976.21 258.726 1976.21C258.726 1976.21 195.375 2019.12 169.966 2078.85Z" fill="white"/>
<path d="M207.737 2273.31C196.578 2336.98 230.399 2385.04 230.399 2385.04C230.399 2385.04 278.642 2350.03 289.801 2286.35C300.961 2222.68 270.573 2154.54 270.573 2154.54C270.573 2154.54 218.896 2209.8 207.737 2273.31Z" fill="white"/>
<path d="M292.548 2454.72C295.81 2522.69 339.589 2565.08 339.589 2565.08C339.589 2565.08 379.076 2518.91 375.642 2450.94C372.38 2382.98 327.571 2319.13 327.571 2319.13C327.571 2319.13 289.286 2386.75 292.548 2454.72Z" fill="white"/>
<path d="M418.562 2610.57C438.992 2675.79 492.042 2706.85 492.042 2706.85C492.042 2706.85 518.653 2652.96 498.222 2587.74C477.792 2522.52 418.218 2470.86 418.218 2470.86C418.218 2470.86 398.131 2545.35 418.562 2610.57Z" fill="white"/>
<path d="M575.822 2730.71C608.785 2790.95 667.329 2811.89 667.329 2811.89C667.329 2811.89 682.609 2754.05 649.646 2693.98C616.683 2633.74 547.838 2593.92 547.838 2593.92C547.838 2593.92 542.688 2670.47 575.822 2730.71Z" fill="white"/>
<path d="M755.918 2812.06C801.758 2864.06 863.563 2872.47 863.563 2872.47C863.563 2872.47 865.452 2812.92 819.613 2760.91C773.773 2708.91 697.546 2684.19 697.546 2684.19C697.546 2684.19 709.907 2760.05 755.918 2812.06Z" fill="white"/>
<path d="M957.647 2857.03C1013.96 2898.56 1076.28 2894.27 1076.28 2894.27C1076.28 2894.27 1064.95 2835.74 1008.64 2794.04C952.324 2752.5 872.32 2743.58 872.32 2743.58C872.32 2743.58 901.335 2815.49 957.647 2857.03Z" fill="white"/>
<path d="M1428.91 440.109L1466 555.446L1587.03 554.931L1488.83 625.643L1526.6 740.637L1428.91 669.066L1331.23 740.637L1369.17 625.643L1270.97 554.931L1392 555.446L1428.91 440.109Z" fill="white"/>
<path d="M1137.4 558.022L1157.66 621.183L1223.93 620.839L1170.19 659.628L1190.96 722.446L1137.4 683.314L1084.01 722.446L1104.78 659.628L1051.04 620.839L1117.31 621.183L1137.4 558.022Z" fill="white"/>
<path d="M925.027 611.917L940.306 659.802L990.609 659.63L949.749 688.979L965.544 736.693L925.027 707.001L884.509 736.693L900.133 688.979L859.444 659.63L909.575 659.802L925.027 611.917Z" fill="white"/>
<path d="M1720.43 558.022L1700.35 621.183L1634.08 620.839L1687.81 659.628L1667.04 722.446L1720.43 683.314L1774 722.446L1753.22 659.628L1806.96 620.839L1740.69 621.183L1720.43 558.022Z" fill="white"/>
<path d="M1932.97 611.917L1917.69 659.802L1867.39 659.63L1908.08 688.979L1892.46 736.693L1932.97 707.001L1973.49 736.693L1957.87 688.979L1998.56 659.63L1948.25 659.802L1932.97 611.917Z" fill="white"/>
<path d="M764.8 2017.2C731 2017.2 705.2 2007.8 687.4 1989C669.8 1970.2 661 1943.5 661 1908.9C661 1891.7 663.7 1876.4 669.1 1863C674.5 1849.4 681.9 1838 691.3 1828.8C700.7 1819.4 711.9 1812.3 724.9 1807.5C737.9 1802.7 752 1800.3 767.2 1800.3C776 1800.3 784 1801 791.2 1802.4C798.4 1803.6 804.7 1805.1 810.1 1806.9C815.5 1808.5 820 1810.2 823.6 1812C827.2 1813.8 829.8 1815.2 831.4 1816.2L817.9 1854C811.5 1850.6 804 1847.7 795.4 1845.3C787 1842.9 777.4 1841.7 766.6 1841.7C759.4 1841.7 752.3 1842.9 745.3 1845.3C738.5 1847.7 732.4 1851.6 727 1857C721.8 1862.2 717.6 1869 714.4 1877.4C711.2 1885.8 709.6 1896 709.6 1908C709.6 1917.6 710.6 1926.6 712.6 1935C714.8 1943.2 718.2 1950.3 722.8 1956.3C727.6 1962.3 733.8 1967.1 741.4 1970.7C749 1974.1 758.2 1975.8 769 1975.8C775.8 1975.8 781.9 1975.4 787.3 1974.6C792.7 1973.8 797.5 1972.9 801.7 1971.9C805.9 1970.7 809.6 1969.4 812.8 1968C816 1966.6 818.9 1965.3 821.5 1964.1L834.4 2001.6C827.8 2005.6 818.5 2009.2 806.5 2012.4C794.5 2015.6 780.6 2017.2 764.8 2017.2ZM1012.23 2013C1010.03 2005.8 1007.53 1998.4 1004.73 1990.8C1002.13 1983.2 999.527 1975.6 996.927 1968H915.927C913.327 1975.6 910.627 1983.2 907.827 1990.8C905.227 1998.4 902.827 2005.8 900.627 2013H852.027C859.827 1990.6 867.227 1969.9 874.227 1950.9C881.227 1931.9 888.027 1914 894.627 1897.2C901.427 1880.4 908.027 1864.5 914.427 1849.5C921.027 1834.3 927.827 1819.5 934.827 1805.1H979.527C986.327 1819.5 993.027 1834.3 999.627 1849.5C1006.23 1864.5 1012.83 1880.4 1019.43 1897.2C1026.23 1914 1033.13 1931.9 1040.13 1950.9C1047.13 1969.9 1054.53 1990.6 1062.33 2013H1012.23ZM956.127 1852.2C955.127 1855.2 953.627 1859.3 951.627 1864.5C949.627 1869.7 947.327 1875.7 944.727 1882.5C942.127 1889.3 939.227 1896.8 936.027 1905C933.027 1913.2 929.927 1921.8 926.727 1930.8H985.827C982.627 1921.8 979.527 1913.2 976.527 1905C973.527 1896.8 970.627 1889.3 967.827 1882.5C965.227 1875.7 962.927 1869.7 960.927 1864.5C958.927 1859.3 957.327 1855.2 956.127 1852.2ZM1150.14 1802.7C1181.34 1802.7 1205.24 1808.3 1221.84 1819.5C1238.44 1830.5 1246.74 1847.7 1246.74 1871.1C1246.74 1885.7 1243.34 1897.6 1236.54 1906.8C1229.94 1915.8 1220.34 1922.9 1207.74 1928.1C1211.94 1933.3 1216.34 1939.3 1220.94 1946.1C1225.54 1952.7 1230.04 1959.7 1234.44 1967.1C1239.04 1974.3 1243.44 1981.9 1247.64 1989.9C1251.84 1997.7 1255.74 2005.4 1259.34 2013H1206.84C1203.04 2006.2 1199.14 1999.3 1195.14 1992.3C1191.34 1985.3 1187.34 1978.5 1183.14 1971.9C1179.14 1965.3 1175.14 1959.1 1171.14 1953.3C1167.14 1947.3 1163.14 1941.9 1159.14 1937.1H1136.04V2013H1089.24V1808.1C1099.44 1806.1 1109.94 1804.7 1120.74 1803.9C1131.74 1803.1 1141.54 1802.7 1150.14 1802.7ZM1152.84 1842.6C1149.44 1842.6 1146.34 1842.7 1143.54 1842.9C1140.94 1843.1 1138.44 1843.3 1136.04 1843.5V1899.9H1149.24C1166.84 1899.9 1179.44 1897.7 1187.04 1893.3C1194.64 1888.9 1198.44 1881.4 1198.44 1870.8C1198.44 1860.6 1194.54 1853.4 1186.74 1849.2C1179.14 1844.8 1167.84 1842.6 1152.84 1842.6ZM1323.36 1908.9C1323.36 1919.1 1324.56 1928.3 1326.96 1936.5C1329.56 1944.7 1333.16 1951.8 1337.76 1957.8C1342.56 1963.6 1348.36 1968.1 1355.16 1971.3C1361.96 1974.5 1369.76 1976.1 1378.56 1976.1C1387.16 1976.1 1394.86 1974.5 1401.66 1971.3C1408.66 1968.1 1414.46 1963.6 1419.06 1957.8C1423.86 1951.8 1427.46 1944.7 1429.86 1936.5C1432.46 1928.3 1433.76 1919.1 1433.76 1908.9C1433.76 1898.7 1432.46 1889.5 1429.86 1881.3C1427.46 1872.9 1423.86 1865.8 1419.06 1860C1414.46 1854 1408.66 1849.4 1401.66 1846.2C1394.86 1843 1387.16 1841.4 1378.56 1841.4C1369.76 1841.4 1361.96 1843.1 1355.16 1846.5C1348.36 1849.7 1342.56 1854.3 1337.76 1860.3C1333.16 1866.1 1329.56 1873.2 1326.96 1881.6C1324.56 1889.8 1323.36 1898.9 1323.36 1908.9ZM1482.06 1908.9C1482.06 1926.7 1479.36 1942.4 1473.96 1956C1468.76 1969.4 1461.56 1980.7 1452.36 1989.9C1443.16 1998.9 1432.16 2005.7 1419.36 2010.3C1406.76 2014.9 1393.16 2017.2 1378.56 2017.2C1364.36 2017.2 1350.96 2014.9 1338.36 2010.3C1325.76 2005.7 1314.76 1998.9 1305.36 1989.9C1295.96 1980.7 1288.56 1969.4 1283.16 1956C1277.76 1942.4 1275.06 1926.7 1275.06 1908.9C1275.06 1891.1 1277.86 1875.5 1283.46 1862.1C1289.06 1848.5 1296.56 1837.1 1305.96 1827.9C1315.56 1818.7 1326.56 1811.8 1338.96 1807.2C1351.56 1802.6 1364.76 1800.3 1378.56 1800.3C1392.76 1800.3 1406.16 1802.6 1418.76 1807.2C1431.36 1811.8 1442.36 1818.7 1451.76 1827.9C1461.16 1837.1 1468.56 1848.5 1473.96 1862.1C1479.36 1875.5 1482.06 1891.1 1482.06 1908.9ZM1659.97 1972.8V2013H1521.07V1805.1H1567.87V1972.8H1659.97ZM1690.12 1805.1H1736.92V2013H1690.12V1805.1ZM1924.54 2013C1911.14 1989.2 1896.64 1965.7 1881.04 1942.5C1865.44 1919.3 1848.84 1897.4 1831.24 1876.8V2013H1785.04V1805.1H1823.14C1829.74 1811.7 1837.04 1819.8 1845.04 1829.4C1853.04 1839 1861.14 1849.3 1869.34 1860.3C1877.74 1871.1 1886.04 1882.4 1894.24 1894.2C1902.44 1905.8 1910.14 1917 1917.34 1927.8V1805.1H1963.84V2013H1924.54ZM2151 2013C2148.8 2005.8 2146.3 1998.4 2143.5 1990.8C2140.9 1983.2 2138.3 1975.6 2135.7 1968H2054.7C2052.1 1975.6 2049.4 1983.2 2046.6 1990.8C2044 1998.4 2041.6 2005.8 2039.4 2013H1990.8C1998.6 1990.6 2006 1969.9 2013 1950.9C2020 1931.9 2026.8 1914 2033.4 1897.2C2040.2 1880.4 2046.8 1864.5 2053.2 1849.5C2059.8 1834.3 2066.6 1819.5 2073.6 1805.1H2118.3C2125.1 1819.5 2131.8 1834.3 2138.4 1849.5C2145 1864.5 2151.6 1880.4 2158.2 1897.2C2165 1914 2171.9 1931.9 2178.9 1950.9C2185.9 1969.9 2193.3 1990.6 2201.1 2013H2151ZM2094.9 1852.2C2093.9 1855.2 2092.4 1859.3 2090.4 1864.5C2088.4 1869.7 2086.1 1875.7 2083.5 1882.5C2080.9 1889.3 2078 1896.8 2074.8 1905C2071.8 1913.2 2068.7 1921.8 2065.5 1930.8H2124.6C2121.4 1921.8 2118.3 1913.2 2115.3 1905C2112.3 1896.8 2109.4 1889.3 2106.6 1882.5C2104 1875.7 2101.7 1869.7 2099.7 1864.5C2097.7 1859.3 2096.1 1855.2 2094.9 1852.2Z" fill="white"/>
<path d="M1078 2421.3C1083.8 2418.9 1089.8 2416.2 1096 2413.2C1102.4 2410 1108.6 2406.6 1114.6 2403C1120.6 2399.2 1126.3 2395.3 1131.7 2391.3C1137.3 2387.1 1142.3 2382.7 1146.7 2378.1H1177.9V2586H1133.2V2436.3C1127.2 2440.3 1120.5 2444 1113.1 2447.4C1105.7 2450.6 1098.5 2453.4 1091.5 2455.8L1078 2421.3ZM1314.21 2474.4C1318.81 2474.4 1323.61 2474 1328.61 2473.2C1333.61 2472.2 1337.31 2470.9 1339.71 2469.3V2466.6C1339.71 2465.8 1339.71 2465 1339.71 2464.2C1339.91 2463.4 1340.01 2462.7 1340.01 2462.1C1339.81 2454.9 1339.21 2448.2 1338.21 2442C1337.21 2435.6 1335.51 2430.1 1333.11 2425.5C1330.71 2420.7 1327.41 2417 1323.21 2414.4C1319.21 2411.6 1314.21 2410.2 1308.21 2410.2C1303.41 2410.2 1299.21 2411.2 1295.61 2413.2C1292.01 2415.2 1289.11 2417.8 1286.91 2421C1284.71 2424.2 1283.01 2427.7 1281.81 2431.5C1280.81 2435.3 1280.31 2439 1280.31 2442.6C1280.31 2453.4 1282.91 2461.4 1288.11 2466.6C1293.51 2471.8 1302.21 2474.4 1314.21 2474.4ZM1336.11 2503.5C1331.91 2505.5 1327.21 2507 1322.01 2508C1317.01 2508.8 1312.71 2509.2 1309.11 2509.2C1296.11 2509.2 1285.01 2507.7 1275.81 2504.7C1266.61 2501.5 1259.01 2497.1 1253.01 2491.5C1247.21 2485.7 1242.91 2478.8 1240.11 2470.8C1237.31 2462.8 1235.91 2454 1235.91 2444.4C1235.91 2436.4 1237.21 2428.2 1239.81 2419.8C1242.61 2411.4 1246.91 2403.8 1252.71 2397C1258.51 2390 1265.81 2384.3 1274.61 2379.9C1283.61 2375.3 1294.41 2373 1307.01 2373C1332.81 2373 1352.21 2381 1365.21 2397C1378.41 2412.8 1385.01 2435.6 1385.01 2465.4C1385.01 2485 1382.41 2502.3 1377.21 2517.3C1372.21 2532.3 1364.31 2544.9 1353.51 2555.1C1342.91 2565.3 1329.31 2573.1 1312.71 2578.5C1296.11 2583.7 1276.41 2586.4 1253.61 2586.6C1253.41 2580.2 1253.11 2574 1252.71 2568C1252.31 2562 1251.91 2555.8 1251.51 2549.4C1262.91 2549.2 1273.21 2548.4 1282.41 2547C1291.61 2545.4 1299.71 2542.9 1306.71 2539.5C1313.71 2535.9 1319.61 2531.2 1324.41 2525.4C1329.41 2519.6 1333.31 2512.3 1336.11 2503.5ZM1484.72 2474.4C1489.32 2474.4 1494.12 2474 1499.12 2473.2C1504.12 2472.2 1507.82 2470.9 1510.22 2469.3V2466.6C1510.22 2465.8 1510.22 2465 1510.22 2464.2C1510.42 2463.4 1510.52 2462.7 1510.52 2462.1C1510.32 2454.9 1509.72 2448.2 1508.72 2442C1507.72 2435.6 1506.02 2430.1 1503.62 2425.5C1501.22 2420.7 1497.92 2417 1493.72 2414.4C1489.72 2411.6 1484.72 2410.2 1478.72 2410.2C1473.92 2410.2 1469.72 2411.2 1466.12 2413.2C1462.52 2415.2 1459.62 2417.8 1457.42 2421C1455.22 2424.2 1453.52 2427.7 1452.32 2431.5C1451.32 2435.3 1450.82 2439 1450.82 2442.6C1450.82 2453.4 1453.42 2461.4 1458.62 2466.6C1464.02 2471.8 1472.72 2474.4 1484.72 2474.4ZM1506.62 2503.5C1502.42 2505.5 1497.72 2507 1492.52 2508C1487.52 2508.8 1483.22 2509.2 1479.62 2509.2C1466.62 2509.2 1455.52 2507.7 1446.32 2504.7C1437.12 2501.5 1429.52 2497.1 1423.52 2491.5C1417.72 2485.7 1413.42 2478.8 1410.62 2470.8C1407.82 2462.8 1406.42 2454 1406.42 2444.4C1406.42 2436.4 1407.72 2428.2 1410.32 2419.8C1413.12 2411.4 1417.42 2403.8 1423.22 2397C1429.02 2390 1436.32 2384.3 1445.12 2379.9C1454.12 2375.3 1464.92 2373 1477.52 2373C1503.32 2373 1522.72 2381 1535.72 2397C1548.92 2412.8 1555.52 2435.6 1555.52 2465.4C1555.52 2485 1552.92 2502.3 1547.72 2517.3C1542.72 2532.3 1534.82 2544.9 1524.02 2555.1C1513.42 2565.3 1499.82 2573.1 1483.22 2578.5C1466.62 2583.7 1446.92 2586.4 1424.12 2586.6C1423.92 2580.2 1423.62 2574 1423.22 2568C1422.82 2562 1422.42 2555.8 1422.02 2549.4C1433.42 2549.2 1443.72 2548.4 1452.92 2547C1462.12 2545.4 1470.22 2542.9 1477.22 2539.5C1484.22 2535.9 1490.12 2531.2 1494.92 2525.4C1499.92 2519.6 1503.82 2512.3 1506.62 2503.5ZM1728.72 2481.6C1728.72 2516.6 1722.02 2543.5 1708.62 2562.3C1695.42 2580.9 1677.12 2590.2 1653.72 2590.2C1630.32 2590.2 1611.92 2580.9 1598.52 2562.3C1585.32 2543.5 1578.72 2516.6 1578.72 2481.6C1578.72 2464.2 1580.42 2448.8 1583.82 2435.4C1587.42 2422 1592.52 2410.7 1599.12 2401.5C1605.72 2392.3 1613.62 2385.3 1622.82 2380.5C1632.02 2375.7 1642.32 2373.3 1653.72 2373.3C1677.12 2373.3 1695.42 2382.7 1708.62 2401.5C1722.02 2420.1 1728.72 2446.8 1728.72 2481.6ZM1683.12 2481.6C1683.12 2471.2 1682.62 2461.8 1681.62 2453.4C1680.62 2444.8 1679.02 2437.4 1676.82 2431.2C1674.62 2425 1671.62 2420.2 1667.82 2416.8C1664.02 2413.4 1659.32 2411.7 1653.72 2411.7C1648.12 2411.7 1643.42 2413.4 1639.62 2416.8C1636.02 2420.2 1633.02 2425 1630.62 2431.2C1628.42 2437.4 1626.82 2444.8 1625.82 2453.4C1624.82 2461.8 1624.32 2471.2 1624.32 2481.6C1624.32 2492 1624.82 2501.5 1625.82 2510.1C1626.82 2518.7 1628.42 2526.1 1630.62 2532.3C1633.02 2538.5 1636.02 2543.3 1639.62 2546.7C1643.42 2550.1 1648.12 2551.8 1653.72 2551.8C1659.32 2551.8 1664.02 2550.1 1667.82 2546.7C1671.62 2543.3 1674.62 2538.5 1676.82 2532.3C1679.02 2526.1 1680.62 2518.7 1681.62 2510.1C1682.62 2501.5 1683.12 2492 1683.12 2481.6Z" fill="white"/>
<path d="M1178.2 2273.2C1187.27 2273.2 1193.87 2271.67 1198 2268.6C1202.13 2265.53 1204.2 2261.2 1204.2 2255.6C1204.2 2252.27 1203.47 2249.4 1202 2247C1200.67 2244.6 1198.67 2242.47 1196 2240.6C1193.47 2238.6 1190.33 2236.8 1186.6 2235.2C1182.87 2233.47 1178.6 2231.8 1173.8 2230.2C1169 2228.47 1164.33 2226.6 1159.8 2224.6C1155.4 2222.47 1151.47 2219.87 1148 2216.8C1144.67 2213.73 1141.93 2210.07 1139.8 2205.8C1137.8 2201.53 1136.8 2196.4 1136.8 2190.4C1136.8 2177.87 1141.13 2168.07 1149.8 2161C1158.47 2153.8 1170.27 2150.2 1185.2 2150.2C1193.87 2150.2 1201.53 2151.2 1208.2 2153.2C1215 2155.07 1220.33 2157.13 1224.2 2159.4L1216.4 2179.8C1211.87 2177.27 1206.87 2175.33 1201.4 2174C1196.07 2172.67 1190.53 2172 1184.8 2172C1178 2172 1172.67 2173.4 1168.8 2176.2C1165.07 2179 1163.2 2182.93 1163.2 2188C1163.2 2191.07 1163.8 2193.73 1165 2196C1166.33 2198.13 1168.13 2200.07 1170.4 2201.8C1172.8 2203.53 1175.53 2205.13 1178.6 2206.6C1181.8 2208.07 1185.27 2209.47 1189 2210.8C1195.53 2213.2 1201.33 2215.67 1206.4 2218.2C1211.6 2220.6 1215.93 2223.53 1219.4 2227C1223 2230.33 1225.73 2234.33 1227.6 2239C1229.47 2243.53 1230.4 2249.07 1230.4 2255.6C1230.4 2268.13 1225.93 2277.87 1217 2284.8C1208.2 2291.6 1195.27 2295 1178.2 2295C1172.47 2295 1167.2 2294.6 1162.4 2293.8C1157.73 2293.13 1153.53 2292.27 1149.8 2291.2C1146.2 2290.13 1143.07 2289.07 1140.4 2288C1137.73 2286.8 1135.6 2285.73 1134 2284.8L1141.4 2264.2C1145 2266.2 1149.87 2268.2 1156 2270.2C1162.13 2272.2 1169.53 2273.2 1178.2 2273.2ZM1252.61 2153.4H1277.81V2292H1252.61V2153.4ZM1404.41 2292C1399.87 2284.4 1394.81 2276.27 1389.21 2267.6C1383.61 2258.8 1377.81 2250 1371.81 2241.2C1365.81 2232.27 1359.67 2223.67 1353.41 2215.4C1347.27 2207 1341.41 2199.47 1335.81 2192.8V2292H1311.01V2153.4H1331.61C1336.94 2159 1342.67 2165.67 1348.81 2173.4C1354.94 2181 1361.07 2188.93 1367.21 2197.2C1373.47 2205.47 1379.47 2213.8 1385.21 2222.2C1391.07 2230.47 1396.27 2238.2 1400.81 2245.4V2153.4H1425.81V2292H1404.41ZM1520.65 2295C1510.25 2295 1500.92 2293.4 1492.65 2290.2C1484.39 2287 1477.39 2282.33 1471.65 2276.2C1465.92 2269.93 1461.52 2262.33 1458.45 2253.4C1455.39 2244.47 1453.85 2234.2 1453.85 2222.6C1453.85 2211 1455.59 2200.73 1459.05 2191.8C1462.65 2182.87 1467.52 2175.33 1473.65 2169.2C1479.79 2162.93 1486.99 2158.2 1495.25 2155C1503.52 2151.8 1512.39 2150.2 1521.85 2150.2C1527.59 2150.2 1532.79 2150.67 1537.45 2151.6C1542.12 2152.4 1546.19 2153.33 1549.65 2154.4C1553.12 2155.47 1555.99 2156.6 1558.25 2157.8C1560.52 2159 1562.12 2159.87 1563.05 2160.4L1555.65 2181C1552.45 2179 1547.85 2177.13 1541.85 2175.4C1535.99 2173.53 1529.59 2172.6 1522.65 2172.6C1516.65 2172.6 1511.05 2173.67 1505.85 2175.8C1500.65 2177.8 1496.12 2180.87 1492.25 2185C1488.52 2189.13 1485.59 2194.33 1483.45 2200.6C1481.32 2206.87 1480.25 2214.13 1480.25 2222.4C1480.25 2229.73 1481.05 2236.47 1482.65 2242.6C1484.39 2248.73 1486.99 2254.07 1490.45 2258.6C1493.92 2263 1498.32 2266.47 1503.65 2269C1508.99 2271.4 1515.39 2272.6 1522.85 2272.6C1531.79 2272.6 1539.05 2271.73 1544.65 2270C1550.25 2268.13 1554.59 2266.4 1557.65 2264.8L1564.45 2285.4C1562.85 2286.47 1560.65 2287.53 1557.85 2288.6C1555.19 2289.67 1551.99 2290.73 1548.25 2291.8C1544.52 2292.73 1540.32 2293.47 1535.65 2294C1530.99 2294.67 1525.99 2295 1520.65 2295ZM1586.59 2292V2153.4H1675.59V2174.8H1611.79V2209H1668.59V2230H1611.79V2270.6H1680.39V2292H1586.59Z" fill="white"/>
<path d="M2143.4 1623.53H2118.91V1321.06H2120.35C2132.28 1321.06 2141.95 1311.39 2141.95 1299.46C2141.95 1287.53 2132.28 1277.86 2120.35 1277.86H1727.14V1251.93H1774.68C1784.59 1251.93 1793.23 1245.18 1795.63 1235.56C1798.04 1225.95 1793.59 1215.93 1784.84 1211.26L1450.6 1033V998.434H1567.27C1574.76 998.434 1581.71 994.557 1585.65 988.188C1589.59 981.819 1589.94 973.866 1586.59 967.168L1568.38 930.74L1586.59 894.311C1589.94 887.614 1589.59 879.66 1585.65 873.291C1581.71 866.922 1574.76 863.045 1567.27 863.045H1450.6V861.605C1450.6 849.673 1440.93 840 1429 840C1417.07 840 1407.4 849.673 1407.4 861.605V1033L1073.16 1211.26C1064.41 1215.93 1059.96 1225.95 1062.37 1235.56C1064.77 1245.18 1073.41 1251.93 1083.32 1251.93H1130.86V1277.86H737.65C725.718 1277.86 716.045 1287.53 716.045 1299.46C716.045 1311.39 725.718 1321.06 737.65 1321.06H739.09V1623.53H714.605C702.673 1623.53 693 1633.2 693 1645.14C693 1657.07 702.673 1666.74 714.605 1666.74H2143.4C2155.33 1666.74 2165 1657.07 2165 1645.14C2165 1633.2 2155.33 1623.53 2143.4 1623.53ZM2075.7 1321.06V1623.53H1727.14V1321.06H2075.7ZM1683.94 1623.53H1634.96V1251.93H1683.94V1623.53ZM1315.22 1251.93V1623.53H1266.24V1251.93H1315.22ZM1358.42 1251.93H1407.4V1623.53H1358.42V1251.93ZM1450.6 1251.93H1499.58V1623.53H1450.6V1251.93ZM1542.78 1251.93H1591.76V1623.53H1542.78V1251.93ZM1532.31 906.254L1524.9 921.078C1521.86 927.159 1521.86 934.32 1524.9 940.401L1532.31 955.225H1450.6V906.254H1532.31ZM1429 1070.45L1688.26 1208.72H1169.74L1429 1070.45ZM1223.04 1251.93V1623.53H1174.06V1251.93H1223.04ZM782.299 1321.06H1130.86V1623.53H782.299V1321.06Z" fill="white"/>
<path d="M1060.28 1508.31C1048.35 1508.31 1038.67 1517.98 1038.67 1529.91V1552.96C1038.67 1564.89 1048.35 1574.56 1060.28 1574.56C1072.21 1574.56 1081.88 1564.89 1081.88 1552.96V1529.91C1081.88 1517.98 1072.21 1508.31 1060.28 1508.31Z" fill="white"/>
<path d="M991.145 1508.31C979.213 1508.31 969.54 1517.98 969.54 1529.91V1552.96C969.54 1564.89 979.213 1574.56 991.145 1574.56C1003.08 1574.56 1012.75 1564.89 1012.75 1552.96V1529.91C1012.75 1517.98 1003.08 1508.31 991.145 1508.31Z" fill="white"/>
<path d="M922.009 1508.31C910.078 1508.31 900.405 1517.98 900.405 1529.91V1552.96C900.405 1564.89 910.078 1574.56 922.009 1574.56C933.941 1574.56 943.614 1564.89 943.614 1552.96V1529.91C943.614 1517.98 933.941 1508.31 922.009 1508.31Z" fill="white"/>
<path d="M852.875 1508.31C840.943 1508.31 831.27 1517.98 831.27 1529.91V1552.96C831.27 1564.89 840.943 1574.56 852.875 1574.56C864.806 1574.56 874.479 1564.89 874.479 1552.96V1529.91C874.479 1517.98 864.806 1508.31 852.875 1508.31Z" fill="white"/>
<path d="M1060.28 1370.04C1048.35 1370.04 1038.67 1379.71 1038.67 1391.64V1460.78C1038.67 1472.71 1048.35 1482.38 1060.28 1482.38C1072.21 1482.38 1081.88 1472.71 1081.88 1460.78V1391.64C1081.88 1379.71 1072.21 1370.04 1060.28 1370.04Z" fill="white"/>
<path d="M991.145 1370.04C979.213 1370.04 969.54 1379.71 969.54 1391.64V1460.78C969.54 1472.71 979.213 1482.38 991.145 1482.38C1003.08 1482.38 1012.75 1472.71 1012.75 1460.78V1391.64C1012.75 1379.71 1003.08 1370.04 991.145 1370.04Z" fill="white"/>
<path d="M922.009 1370.04C910.078 1370.04 900.405 1379.71 900.405 1391.64V1460.78C900.405 1472.71 910.078 1482.38 922.009 1482.38C933.941 1482.38 943.614 1472.71 943.614 1460.78V1391.64C943.614 1379.71 933.941 1370.04 922.009 1370.04Z" fill="white"/>
<path d="M852.875 1370.04C840.943 1370.04 831.27 1379.71 831.27 1391.64V1460.78C831.27 1472.71 840.943 1482.38 852.875 1482.38C864.806 1482.38 874.479 1472.71 874.479 1460.78V1391.64C874.479 1379.71 864.806 1370.04 852.875 1370.04Z" fill="white"/>
<path d="M2005.13 1574.56C2017.06 1574.56 2026.73 1564.89 2026.73 1552.96V1529.91C2026.73 1517.98 2017.06 1508.31 2005.13 1508.31C1993.19 1508.31 1983.52 1517.98 1983.52 1529.91V1552.96C1983.52 1564.89 1993.19 1574.56 2005.13 1574.56Z" fill="white"/>
<path d="M1935.99 1574.56C1947.92 1574.56 1957.6 1564.89 1957.6 1552.96V1529.91C1957.6 1517.98 1947.92 1508.31 1935.99 1508.31C1924.06 1508.31 1914.39 1517.98 1914.39 1529.91V1552.96C1914.39 1564.89 1924.06 1574.56 1935.99 1574.56Z" fill="white"/>
<path d="M1866.85 1574.56C1878.79 1574.56 1888.46 1564.89 1888.46 1552.96V1529.91C1888.46 1517.98 1878.79 1508.31 1866.85 1508.31C1854.92 1508.31 1845.25 1517.98 1845.25 1529.91V1552.96C1845.25 1564.89 1854.92 1574.56 1866.85 1574.56Z" fill="white"/>
<path d="M1797.72 1574.56C1809.65 1574.56 1819.32 1564.89 1819.32 1552.96V1529.91C1819.32 1517.98 1809.65 1508.31 1797.72 1508.31C1785.79 1508.31 1776.12 1517.98 1776.12 1529.91V1552.96C1776.12 1564.89 1785.79 1574.56 1797.72 1574.56Z" fill="white"/>
<path d="M2005.13 1482.38C2017.06 1482.38 2026.73 1472.71 2026.73 1460.78V1391.64C2026.73 1379.71 2017.06 1370.04 2005.13 1370.04C1993.19 1370.04 1983.52 1379.71 1983.52 1391.64V1460.78C1983.52 1472.71 1993.19 1482.38 2005.13 1482.38Z" fill="white"/>
<path d="M1935.99 1482.38C1947.92 1482.38 1957.6 1472.71 1957.6 1460.78V1391.64C1957.6 1379.71 1947.92 1370.04 1935.99 1370.04C1924.06 1370.04 1914.39 1379.71 1914.39 1391.64V1460.78C1914.39 1472.71 1924.06 1482.38 1935.99 1482.38Z" fill="white"/>
<path d="M1866.85 1482.38C1878.79 1482.38 1888.46 1472.71 1888.46 1460.78V1391.64C1888.46 1379.71 1878.79 1370.04 1866.85 1370.04C1854.92 1370.04 1845.25 1379.71 1845.25 1391.64V1460.78C1845.25 1472.71 1854.92 1482.38 1866.85 1482.38Z" fill="white"/>
<path d="M1797.72 1482.38C1809.65 1482.38 1819.32 1472.71 1819.32 1460.78V1391.64C1819.32 1379.71 1809.65 1370.04 1797.72 1370.04C1785.79 1370.04 1776.12 1379.71 1776.12 1391.64V1460.78C1776.12 1472.71 1785.79 1482.38 1797.72 1482.38Z" fill="white"/>
<path d="M1382.91 1182.79H1475.09C1487.02 1182.79 1496.7 1173.12 1496.7 1161.19C1496.7 1149.26 1487.02 1139.58 1475.09 1139.58H1382.91C1370.98 1139.58 1361.31 1149.26 1361.31 1161.19C1361.31 1173.12 1370.98 1182.79 1382.91 1182.79Z" fill="white"/>
</svg>
